<svg version="1.1" id="Layer_1" xmlns:x="ns_extend;" xmlns:i="ns_ai;" xmlns:graph="ns_graphs;" xmlns="http://www.w3.org/2000/svg" xmlns:xlink="http://www.w3.org/1999/xlink" x="0px" y="0px" viewBox="0 0 293.2 107.8" style="enable-background:new 0 0 293.2 107.8;" xml:space="preserve">
 <style type="text/css">
  .st0{fill:#48555C;}
	.st1{fill:#B2AD4B;}
	.st2{fill:#E3B23A;}
	.st3{fill:#4E5C5A;}
	.st4{fill:#9E9540;}
	.st5{fill:#6A7B53;}
	.st6{fill:#D45741;}
	.st7{fill:#983428;}
	.st8{fill:#E7703D;}
	.st9{fill:#F2A738;}
 </style>
 <metadata>
  <sfw xmlns="ns_sfw;">
   <slices>
   </slices>
   <sliceSourceBounds bottomLeftOrigin="true" height="107.8" width="293.3" x="0" y="0">
   </sliceSourceBounds>
  </sfw>
 </metadata>
 <g>
  <path class="st0" d="M42.3,72.7L23.6,98.5c8.2,5.6,18.1,9,28.7,9.3V76C48.6,75.7,45.2,74.6,42.3,72.7z">
  </path>
  <path class="st1" d="M52.2,31.8V0C41.6,0.3,31.7,3.7,23.5,9.3L42.2,35C45.2,33.2,48.6,32.1,52.2,31.8z">
  </path>
  <path class="st2" d="M84.2,9.3C76,3.7,66.1,0.3,55.5,0v31.8c3.6,0.3,7,1.4,10,3.2L84.2,9.3z">
  </path>
  <path class="st3" d="M33.4,62.3L3.2,72.1c3.5,9.7,9.7,18.2,17.8,24.4l18.7-25.7C36.9,68.5,34.8,65.6,33.4,62.3z">
  </path>
  <path class="st4" d="M39.6,37L20.9,11.3C12.8,17.5,6.6,26,3.1,35.7l30.2,9.8C34.7,42.2,36.9,39.3,39.6,37z">
  </path>
  <path class="st5" d="M31.8,53.9c0-1.8,0.2-3.5,0.6-5.2L2.1,38.8C0.7,43.6,0,48.7,0,53.9S0.8,64.2,2.2,69l30.2-9.8
		C32,57.5,31.8,55.7,31.8,53.9z">
  </path>
  <path class="st6" d="M68.3,70.7L87,96.4c8-6.2,14.2-14.7,17.7-24.4l-30.2-9.8C73.1,65.6,70.9,68.5,68.3,70.7z">
  </path>
  <path class="st7" d="M55.6,76v31.8c10.6-0.3,20.5-3.7,28.7-9.3L65.6,72.7C62.6,74.5,59.2,75.7,55.6,76z">
  </path>
  <path class="st8" d="M105.7,38.8l-30.2,9.8c0.4,1.7,0.6,3.5,0.6,5.3s-0.2,3.5-0.6,5.2l30.2,9.8c1.4-4.8,2.1-9.8,2.1-15
		C107.8,48.6,107.1,43.6,105.7,38.8z">
  </path>
  <path class="st9" d="M74.4,45.4l30.2-9.8c-3.5-9.7-9.7-18.2-17.8-24.4L68.2,37C70.9,39.2,73,42.1,74.4,45.4z">
  </path>
  <path d="M140.7,77.4c-6.4,0-9.2-4.3-9.2-9.3V30.2h6.8v37.5c0,2.6,0.9,3.9,3.6,3.9h3v5.8H140.7L140.7,77.4z M148.9,37.1V30h7.2v7.2
		L148.9,37.1L148.9,37.1z M149.1,77.4V43.8h6.8v33.6C155.9,77.4,149.1,77.4,149.1,77.4z M173.1,77.4c-6.3,0-9.2-4.5-9.2-9.4V49.5
		H160v-5.2h3.8V34.1h6.8v10.2h6.5v5.2h-6.5v18.2c0,2.5,1.2,3.9,3.7,3.9h2.8v5.8H173.1L173.1,77.4z M223.2,77.4V56.9
		c0-5.2-3-7.5-6.8-7.5c-3.6,0-7,2.3-7,7.2v20.8h-6.8V56.9c0-5.2-3-7.5-6.8-7.5s-7,2.3-7,7.5v20.5H182V43.8h6.6v3.4
		c2.3-2.5,5.6-3.8,9-3.8c4.2,0,7.4,1.7,9.6,4.9c2.7-3.3,6.1-4.9,10.5-4.9c3.4,0,6.5,1.1,8.5,3.1c2.6,2.5,3.6,5.7,3.6,9.5v21.5
		L223.2,77.4L223.2,77.4z M255.6,77.4V74c-2.3,2.5-5.6,3.8-9,3.8s-6.3-1.1-8.3-3.1c-2.6-2.5-3.4-5.7-3.4-9.5V43.8h6.8v20.5
		c0,5.2,3,7.5,6.8,7.5s7-2.3,7-7.5V43.8h6.8v33.6L255.6,77.4L255.6,77.4z M279.2,77.8c-5.5,0-10.1-0.9-14.1-4.8l4.4-4.4
		c2.7,2.8,6.4,3.5,9.7,3.5c4.1,0,7.4-1.5,7.4-4.6c0-2.3-1.3-3.7-4.5-4l-5.4-0.5c-6.3-0.5-9.9-3.4-9.9-9.3c0-6.6,5.6-10.3,12.7-10.3
		c5,0,9.3,1.1,12.5,3.8l-4.2,4.3c-2.1-1.8-5.1-2.5-8.3-2.5c-4,0-6.1,1.8-6.1,4.3c0,2,1.1,3.5,4.6,3.8l5.3,0.5c6.3,0.5,10,3.5,10,9.5
		C293.2,74.1,287.2,77.8,279.2,77.8z">
  </path>
 </g>
</svg>