<svg xmlns="http://www.w3.org/2000/svg" xmlns:xlink="http://www.w3.org/1999/xlink" width="165" zoomAndPan="magnify" viewBox="0 0 123.75 36.000001" height="48" preserveAspectRatio="xMidYMid meet" version="1.0"><defs><g/><clipPath id="5a68bceb8a"><path d="M 1.550781 0 L 121.957031 0 L 121.957031 35.027344 L 1.550781 35.027344 Z M 1.550781 0 " clip-rule="nonzero"/></clipPath><clipPath id="8266f09d87"><path d="M 3.738281 1.292969 L 37.308594 1.292969 L 37.308594 33.398438 L 3.738281 33.398438 Z M 3.738281 1.292969 " clip-rule="nonzero"/></clipPath></defs><g clip-path="url(#5a68bceb8a)"><path fill="#ffffff" d="M 1.550781 0 L 121.957031 0 L 121.957031 35.027344 L 1.550781 35.027344 Z M 1.550781 0 " fill-opacity="1" fill-rule="nonzero"/><path fill="#ffffff" d="M 1.550781 0 L 121.957031 0 L 121.957031 35.027344 L 1.550781 35.027344 Z M 1.550781 0 " fill-opacity="1" fill-rule="nonzero"/></g><g clip-path="url(#8266f09d87)"><path fill="#29abe2" d="M 27.96875 26.210938 L 26.335938 24.582031 C 26.023438 24.273438 26.023438 23.769531 26.335938 23.460938 L 28.445312 21.355469 C 28.753906 21.046875 28.753906 20.546875 28.445312 20.234375 C 28.132812 19.925781 27.628906 19.925781 27.320312 20.234375 L 23.550781 23.992188 C 23.164062 24.378906 22.535156 24.378906 22.148438 23.992188 C 21.757812 23.605469 21.757812 22.980469 22.148438 22.59375 L 28.445312 16.3125 C 28.753906 16 28.753906 15.5 28.445312 15.1875 C 28.132812 14.878906 27.628906 14.878906 27.320312 15.1875 L 13.832031 28.644531 C 13.445312 29.03125 12.816406 29.03125 12.425781 28.644531 C 12.039062 28.257812 12.039062 27.628906 12.425781 27.242188 L 23.386719 16.3125 C 23.695312 16 23.695312 15.5 23.386719 15.1875 C 23.074219 14.878906 22.570312 14.878906 22.261719 15.1875 L 17.988281 19.453125 C 17.675781 19.761719 17.171875 19.761719 16.863281 19.453125 L 16.582031 19.171875 C 16.269531 18.859375 16.269531 18.359375 16.582031 18.046875 L 23.382812 11.261719 C 23.695312 10.953125 23.695312 10.449219 23.382812 10.140625 C 23.074219 9.832031 22.570312 9.832031 22.257812 10.140625 L 6.230469 26.132812 C 5.84375 26.519531 5.214844 26.519531 4.828125 26.132812 C 4.4375 25.746094 4.4375 25.117188 4.828125 24.730469 L 18.324219 11.265625 C 18.636719 10.957031 18.636719 10.453125 18.324219 10.144531 C 18.015625 9.832031 17.511719 9.832031 17.203125 10.144531 L 15.09375 12.246094 C 14.785156 12.554688 14.28125 12.554688 13.96875 12.246094 L 12.339844 10.617188 C 11.921875 10.203125 12.089844 9.492188 12.648438 9.304688 L 36.09375 1.507812 C 36.714844 1.300781 37.308594 1.890625 37.101562 2.511719 L 29.285156 25.898438 C 29.097656 26.457031 28.386719 26.625 27.96875 26.210938 Z M 15.15625 20.875 C 14.769531 20.488281 14.140625 20.488281 13.753906 20.875 L 4.128906 30.476562 C 3.738281 30.863281 3.738281 31.488281 4.128906 31.875 C 4.515625 32.265625 5.144531 32.265625 5.53125 31.875 L 15.15625 22.273438 C 15.546875 21.886719 15.546875 21.261719 15.15625 20.875 Z M 20.777344 25.359375 C 20.390625 24.972656 19.761719 24.972656 19.375 25.359375 L 13.117188 31.601562 C 12.730469 31.988281 12.730469 32.613281 13.117188 33 C 13.503906 33.386719 14.132812 33.386719 14.523438 33 L 20.777344 26.761719 C 21.167969 26.375 21.167969 25.746094 20.777344 25.359375 Z M 11.816406 29.214844 C 11.4375 28.839844 10.824219 28.839844 10.449219 29.214844 C 10.070312 29.59375 10.070312 30.207031 10.449219 30.582031 C 10.824219 30.960938 11.4375 30.960938 11.816406 30.582031 C 12.195312 30.207031 12.195312 29.59375 11.816406 29.214844 Z M 11.816406 29.214844 " fill-opacity="1" fill-rule="nonzero"/></g><g fill="#000000" fill-opacity="1"><g transform="translate(38.262397, 23.631695)"><g><path d="M 4.617188 0.105469 C 6.570312 0.105469 8.253906 -1.371094 8.253906 -3.304688 L 8.253906 -3.535156 L 6.445312 -3.535156 L 6.445312 -3.304688 C 6.445312 -1.953125 5.449219 -1.496094 4.617188 -1.496094 C 3.722656 -1.496094 2.785156 -2.039062 2.785156 -3.429688 L 2.785156 -9.460938 C 2.785156 -10.855469 3.722656 -11.394531 4.617188 -11.394531 C 5.449219 -11.394531 6.445312 -10.9375 6.445312 -9.585938 L 6.445312 -9.355469 L 8.253906 -9.355469 L 8.253906 -9.585938 C 8.253906 -11.519531 6.570312 -12.996094 4.617188 -12.996094 C 2.496094 -12.996094 0.976562 -11.539062 0.976562 -9.605469 L 0.976562 -3.285156 C 0.976562 -1.351562 2.496094 0.105469 4.617188 0.105469 Z M 4.617188 0.105469 "/></g></g></g><g fill="#000000" fill-opacity="1"><g transform="translate(46.971789, 23.631695)"><g><path d="M 4.367188 0.105469 C 5.863281 0.105469 7.445312 -0.851562 7.652344 -2.496094 L 5.863281 -2.496094 C 5.636719 -1.890625 5.011719 -1.496094 4.367188 -1.496094 C 3.429688 -1.496094 2.785156 -2.226562 2.785156 -3.160156 L 2.785156 -4.117188 L 7.714844 -4.117188 L 7.714844 -6.40625 C 7.714844 -8.253906 6.34375 -9.667969 4.367188 -9.667969 C 2.390625 -9.667969 0.976562 -8.253906 0.976562 -6.40625 L 0.976562 -2.953125 C 0.976562 -1.121094 2.535156 0.105469 4.367188 0.105469 Z M 2.785156 -5.71875 L 2.785156 -6.46875 C 2.785156 -7.382812 3.410156 -8.066406 4.347656 -8.066406 C 5.300781 -8.066406 5.90625 -7.382812 5.90625 -6.46875 L 5.90625 -5.71875 Z M 2.785156 -5.71875 "/></g></g></g><g fill="#000000" fill-opacity="1"><g transform="translate(55.660389, 23.631695)"><g><path d="M 3.824219 0.105469 C 6.300781 0.105469 6.988281 -1.539062 6.988281 -2.453125 C 6.988281 -5.15625 2.578125 -5.511719 2.578125 -6.988281 C 2.578125 -8.089844 3.597656 -8.191406 3.867188 -8.191406 C 4.410156 -8.191406 5.175781 -7.820312 5.28125 -6.757812 L 6.882812 -6.757812 C 6.777344 -8.109375 5.96875 -9.667969 3.804688 -9.667969 C 2.410156 -9.667969 0.769531 -8.921875 0.769531 -6.964844 C 0.769531 -4.035156 5.175781 -4.097656 5.175781 -2.453125 C 5.175781 -1.664062 4.679688 -1.371094 3.765625 -1.371094 C 3.078125 -1.371094 2.351562 -1.726562 2.308594 -2.808594 L 0.625 -2.808594 C 0.789062 -1.414062 1.683594 0.105469 3.824219 0.105469 Z M 3.824219 0.105469 "/></g></g></g><g fill="#000000" fill-opacity="1"><g transform="translate(63.184972, 23.631695)"><g><path d="M 3.847656 0.105469 C 4.367188 0.105469 4.96875 0.105469 6.03125 -0.664062 L 6.257812 0 L 7.839844 0 L 7.839844 -9.566406 L 6.257812 -9.566406 L 6.03125 -8.898438 C 4.96875 -9.667969 4.367188 -9.667969 3.847656 -9.667969 C 2.183594 -9.667969 0.976562 -8.710938 0.976562 -6.675781 L 0.976562 -2.890625 C 0.976562 -0.851562 2.183594 0.105469 3.847656 0.105469 Z M 4.367188 -1.496094 C 3.554688 -1.496094 2.785156 -2.039062 2.785156 -3.117188 L 2.785156 -6.445312 C 2.785156 -7.527344 3.554688 -8.066406 4.367188 -8.066406 C 5.34375 -8.066406 6.03125 -7.484375 6.03125 -6.445312 L 6.03125 -3.117188 C 6.03125 -2.078125 5.34375 -1.496094 4.367188 -1.496094 Z M 4.367188 -1.496094 "/></g></g></g><g fill="#000000" fill-opacity="1"><g transform="translate(72.102218, 23.631695)"><g><path d="M 1.082031 0 L 2.890625 0 L 2.890625 -4.78125 C 2.890625 -7.175781 4.761719 -7.941406 5.761719 -7.941406 L 6.03125 -7.941406 L 6.03125 -9.566406 L 5.800781 -9.566406 C 4.992188 -9.503906 3.886719 -9.398438 2.890625 -8.027344 L 2.660156 -9.566406 L 1.082031 -9.566406 Z M 1.082031 0 "/></g></g></g><g fill="#000000" fill-opacity="1"><g transform="translate(78.317269, 23.631695)"><g><path d="M 3.679688 0.125 C 5.53125 0.125 7.050781 -1.082031 7.050781 -2.847656 L 7.050781 -12.851562 L 5.238281 -12.851562 L 5.238281 -3.179688 C 5.238281 -2.183594 4.59375 -1.496094 3.679688 -1.496094 C 2.765625 -1.496094 2.164062 -2.183594 2.164062 -3.097656 L 2.164062 -3.390625 L 0.351562 -3.390625 L 0.351562 -2.847656 C 0.351562 -1.082031 1.851562 0.125 3.679688 0.125 Z M 3.679688 0.125 "/></g></g></g><g fill="#000000" fill-opacity="1"><g transform="translate(86.444646, 23.631695)"><g/></g></g><g fill="#000000" fill-opacity="1"><g transform="translate(90.290079, 23.631695)"><g><path d="M 1.082031 0 L 4.71875 0 C 6.777344 0 8.339844 -1.433594 8.339844 -3.390625 L 8.339844 -9.441406 C 8.339844 -11.394531 6.777344 -12.851562 4.71875 -12.851562 L 1.082031 -12.851562 Z M 2.890625 -1.601562 L 2.890625 -11.25 L 4.699219 -11.25 C 5.574219 -11.25 6.527344 -10.730469 6.527344 -9.335938 L 6.527344 -3.515625 C 6.527344 -2.121094 5.574219 -1.601562 4.699219 -1.601562 Z M 2.890625 -1.601562 "/></g></g></g><g fill="#000000" fill-opacity="1"><g transform="translate(99.498332, 23.631695)"><g><path d="M 4.367188 0.105469 C 5.863281 0.105469 7.445312 -0.851562 7.652344 -2.496094 L 5.863281 -2.496094 C 5.636719 -1.890625 5.011719 -1.496094 4.367188 -1.496094 C 3.429688 -1.496094 2.785156 -2.226562 2.785156 -3.160156 L 2.785156 -4.117188 L 7.714844 -4.117188 L 7.714844 -6.40625 C 7.714844 -8.253906 6.34375 -9.667969 4.367188 -9.667969 C 2.390625 -9.667969 0.976562 -8.253906 0.976562 -6.40625 L 0.976562 -2.953125 C 0.976562 -1.121094 2.535156 0.105469 4.367188 0.105469 Z M 2.785156 -5.71875 L 2.785156 -6.46875 C 2.785156 -7.382812 3.410156 -8.066406 4.347656 -8.066406 C 5.300781 -8.066406 5.90625 -7.382812 5.90625 -6.46875 L 5.90625 -5.71875 Z M 2.785156 -5.71875 "/></g></g></g><g fill="#000000" fill-opacity="1"><g transform="translate(108.186932, 23.631695)"><g><path d="M 2.578125 0 L 5.40625 0 L 7.632812 -9.566406 L 5.78125 -9.566406 L 3.992188 -1.433594 L 2.203125 -9.566406 L 0.351562 -9.566406 Z M 2.578125 0 "/></g></g></g></svg>